<?xml version="1.0" standalone="no"?>
<!DOCTYPE svg PUBLIC "-//W3C//DTD SVG 20010904//EN"
 "http://www.w3.org/TR/2001/REC-SVG-20010904/DTD/svg10.dtd">
<svg version="1.0" xmlns="http://www.w3.org/2000/svg"
 width="500.000000pt" height="500.000000pt" viewBox="0 0 500.000000 500.000000"
 preserveAspectRatio="xMidYMid meet">

<g transform="translate(0.000000,500.000000) scale(0.100000,-0.100000)"
fill="#2B344D" stroke="none">
<path d="M3767 3309 c-53 -13 -128 -52 -159 -86 -49 -51 -71 -118 -76 -230
l-5 -103 -78 0 -79 0 0 -80 0 -80 80 0 80 0 0 -455 0 -455 105 0 105 0 0 455
0 455 115 0 115 0 0 80 0 80 -115 0 -115 0 0 73 c0 133 50 183 171 173 l66 -6
22 76 c12 42 18 81 14 85 -24 24 -173 35 -246 18z"/>
<path d="M1773 3295 c-18 -8 -42 -29 -53 -47 -61 -100 37 -213 152 -176 107
34 117 173 15 221 -42 20 -71 21 -114 2z"/>
<path d="M3014 3291 c-45 -27 -64 -59 -64 -107 0 -55 36 -99 91 -114 107 -29
202 78 151 169 -35 65 -118 89 -178 52z"/>
<path d="M4233 3294 c-58 -29 -83 -92 -58 -150 18 -43 37 -60 85 -74 81 -22
160 34 160 114 0 51 -28 92 -76 112 -43 18 -71 17 -111 -2z"/>
<path d="M905 2894 c-134 -30 -214 -81 -275 -176 -22 -34 -40 -66 -40 -72 0
-9 150 -51 182 -51 4 0 20 19 37 42 17 23 52 54 78 70 43 25 57 28 138 28 102
0 144 -17 181 -73 26 -39 38 -109 25 -146 -14 -35 -39 -43 -210 -66 -242 -33
-342 -67 -406 -143 -41 -48 -57 -99 -57 -182 0 -162 84 -269 242 -310 155 -40
324 5 400 108 l35 47 3 -75 3 -75 99 0 100 0 0 398 c0 438 -3 461 -60 540 -17
23 -49 55 -72 72 -89 65 -270 94 -403 64z m333 -651 c-5 -114 -24 -161 -88
-216 -50 -43 -114 -62 -201 -61 -117 1 -189 60 -189 153 0 107 51 142 255 176
83 14 164 29 180 34 17 5 34 10 39 10 4 1 6 -43 4 -96z"/>
<path d="M2603 2892 c-70 -25 -118 -64 -153 -125 l-30 -52 -1 45 c-1 25 -2 64
-2 88 l1 42 -99 0 -99 0 0 -535 0 -535 100 0 99 0 3 363 c3 349 4 363 25 402
25 47 64 85 113 111 27 15 57 19 133 19 l98 0 -3 95 -3 95 -65 2 c-42 2 -83
-3 -117 -15z"/>
<path d="M1730 2355 l0 -535 100 0 100 0 0 535 0 535 -100 0 -100 0 0 -535z"/>
<path d="M2972 2358 l3 -533 103 -3 102 -3 0 536 0 535 -105 0 -105 0 2 -532z"/>
<path d="M4190 2355 l0 -536 103 3 102 3 3 533 2 532 -105 0 -105 0 0 -535z"/>
</g>
</svg>
